<svg width="81" height="81" viewBox="0 0 81 81" fill="none" xmlns="http://www.w3.org/2000/svg">
<circle cx="40.4446" cy="40.2798" r="40" fill="white"/>
<path d="M39.6434 26.8525C39.5708 26.9111 39.4919 26.9663 39.3411 27.002C39.2116 27.0328 39.0287 27.0495 38.7439 27.0604C38.1697 27.0823 37.1026 27.0823 35.0295 27.0823H35.0141C33.0501 27.0823 31.9786 27.0803 31.379 27.0604C31.0815 27.0505 30.8863 27.036 30.752 27.0119C30.6136 26.987 30.5165 26.9479 30.4333 26.8764C30.3536 26.8142 30.2875 26.7294 30.2388 26.6515C30.1873 26.5691 30.1423 26.4737 30.1179 26.3821L30.1178 26.3822L39.5443 25.8281L39.7401 25.6726C39.7402 25.6727 39.7402 25.6728 39.7403 25.6728C39.8855 25.8559 39.9605 26.0718 39.9451 26.2887C39.9296 26.5076 39.8232 26.7074 39.6434 26.8525ZM39.6434 26.8525L39.4862 26.658L39.6432 26.8526C39.6433 26.8526 39.6433 26.8525 39.6434 26.8525ZM33.7172 20.6374L33.7171 20.6374C32.2047 20.9271 30.9953 21.5519 29.8849 22.6061C26.828 25.536 26.8682 30.4984 29.9737 33.38C31.2653 34.5757 32.836 35.2343 34.6557 35.3471C35.0751 35.3713 35.6535 35.3546 35.9321 35.3161L36.4696 35.2334L36.5532 35.2205L36.6274 35.2611L39.5148 36.838L39.5154 36.8384C40.3067 37.2735 41.0311 37.6627 41.5603 37.9398C41.7491 38.0387 41.9124 38.1229 42.0446 38.1897C42.0296 38.041 42.0095 37.8566 41.9852 37.6428C41.918 37.0522 41.8186 36.2424 41.7026 35.3554C41.7026 35.3553 41.7026 35.3553 41.7026 35.3552L41.2794 32.1351L41.2695 32.0593L41.3037 31.9908L41.6767 31.2446C41.6767 31.2445 41.6768 31.2444 41.6768 31.2443C42.1654 30.2587 42.3575 29.4719 42.4142 28.2327C42.4468 27.4103 42.4224 27.0828 42.2948 26.4682L42.2947 26.468C41.7085 23.6325 39.6724 21.4981 36.8345 20.7583C36.4441 20.6567 35.8625 20.5874 35.2708 20.5638C34.6782 20.5403 34.1006 20.5637 33.7172 20.6374ZM35.5774 29.5576L35.5023 29.6552H35.3792H33.056H30.7329H30.6263L30.5525 29.5783L30.3579 29.3755C30.2794 29.3012 30.2138 29.2103 30.167 29.1244C30.1237 29.045 30.0763 28.9336 30.0763 28.8242C30.0763 28.7119 30.1226 28.601 30.1678 28.5195C30.2155 28.4332 30.2812 28.3455 30.3579 28.2729L30.5525 28.0702L30.6263 27.9933H30.7329H33.056H35.3792H35.5023L35.5774 28.0909L35.742 28.3049C35.8032 28.3818 35.8564 28.4679 35.8953 28.5497C35.9305 28.6236 35.9694 28.7252 35.9694 28.8242C35.9694 28.9232 35.9305 29.0249 35.8953 29.0987C35.8564 29.1805 35.8032 29.2666 35.742 29.3436L35.5774 29.5576Z" fill="#FFB685" stroke="black" stroke-width="0.5"/>
<path d="M51.4835 20.8775L51.4833 20.8775C50.7797 21.097 50.1746 21.7786 49.9732 22.687C49.9541 22.7804 49.9333 22.8821 49.9064 22.9681C49.8781 23.0586 49.8274 23.1876 49.7153 23.2996C49.5996 23.4154 49.4675 23.4645 49.3726 23.4903C49.2929 23.512 49.2 23.5267 49.1232 23.5389C49.1175 23.5398 49.1119 23.5407 49.1064 23.5416L49.1064 23.5417L49.095 23.5432C48.1528 23.6712 47.3154 24.4003 46.9746 25.4953L46.9746 25.4953L46.9738 25.4978C46.9601 25.5412 46.946 25.6021 46.9322 25.6794L47.1462 25.7052L47.6274 25.7633L47.6274 25.7633L47.632 25.7639C48.6352 25.8944 49.1015 25.8327 49.4149 25.6731L49.4149 25.6731L49.4181 25.6714C49.6513 25.5548 49.7909 25.4536 49.9508 25.2609C50.1298 25.0452 50.3352 24.7133 50.6725 24.1094C50.8302 23.8196 50.9843 23.5607 51.1069 23.375C51.1667 23.2845 51.2273 23.1987 51.282 23.1337C51.3052 23.1061 51.3493 23.0554 51.407 23.0117C51.4305 22.9939 51.5014 22.9416 51.606 22.9163C51.664 22.9022 51.7531 22.8915 51.856 22.9186C51.9438 22.9417 52.0199 22.9867 52.0799 23.0449C52.1107 23.0744 52.1309 23.1004 52.1371 23.1084L52.1379 23.1094C52.1519 23.1275 52.1641 23.1451 52.1734 23.1588C52.1923 23.1869 52.2125 23.2195 52.2323 23.2523C52.2726 23.3192 52.3231 23.4074 52.3794 23.5079C52.4926 23.71 52.6374 23.9766 52.7871 24.2553L52.7871 24.2553L52.7885 24.258C53.0885 24.8248 53.4094 25.3764 53.5023 25.5041C53.7705 25.8556 54.2722 26.1983 54.8081 26.3627L54.8081 26.3627L54.8114 26.3637C55.1907 26.4829 55.5186 26.5223 55.8848 26.4854C56.2617 26.4473 56.701 26.3262 57.301 26.0926L57.3029 26.0919L58.2737 25.7184L58.6943 25.5565C58.6814 24.6507 58.6431 24.3872 58.5497 24.0186C58.3318 23.1774 58.0124 22.6086 57.3529 21.9489L57.3507 21.9467C56.736 21.3242 56.1574 20.9996 55.4648 20.8567L55.4641 20.8565C55.3524 20.8333 55.0779 20.8104 54.6801 20.796C54.2975 20.7822 53.8381 20.7773 53.3825 20.7809C52.9267 20.7845 52.4798 20.7965 52.122 20.8161C51.9427 20.8259 51.7901 20.8373 51.6718 20.85C51.6127 20.8563 51.5657 20.8626 51.5302 20.8684C51.497 20.8739 51.4835 20.8775 51.4835 20.8775ZM52.0517 23.7724C52.0517 23.7724 52.0508 23.7733 52.0489 23.7754C52.0508 23.7735 52.0517 23.7724 52.0517 23.7724Z" fill="black" stroke="black"/>
<path d="M54.4562 32.7673L54.4557 32.7668C54.3212 32.5858 54.1616 32.4356 53.937 32.3907C53.7233 32.3479 53.5059 32.4127 53.2849 32.512C53.0693 32.6008 52.8742 32.6361 52.7156 32.6178L54.4562 32.7673ZM54.4562 32.7673C54.5249 32.8604 54.6026 32.9713 54.616 33.1146C54.6286 33.2486 54.5802 33.3763 54.5386 33.4859L54.5388 33.486M54.4562 32.7673L54.5388 33.486M54.5388 33.486L54.5357 33.4934M54.5388 33.486L54.5357 33.4934M54.5357 33.4934C54.4152 33.7827 54.1909 33.9331 53.842 34.1033L53.8421 34.1034M54.5357 33.4934L53.8421 34.1034M53.8421 34.1034L53.8359 34.1062M53.8421 34.1034L53.8359 34.1062M53.8359 34.1062C53.1314 34.4265 52.3998 34.4269 51.6942 34.0973M53.8359 34.1062L51.6942 34.0973M51.6942 34.0973C51.3937 33.9597 51.1504 33.7997 51.0199 33.5911C50.9509 33.4807 50.9143 33.3581 50.9181 33.2272C50.9217 33.0995 50.963 32.9796 51.0246 32.8695C51.1382 32.6623 51.2947 32.4961 51.5063 32.4202C51.7205 32.3433 51.9452 32.3754 52.1595 32.4724L52.0564 32.7001L51.6942 34.0973ZM51.5647 26.336L51.5648 26.336L51.5608 26.3414C50.9585 27.1597 49.9194 27.7149 48.8335 27.8035C48.8331 27.8035 48.8328 27.8035 48.8325 27.8036L48.498 27.8331V29.6874C48.498 30.8812 48.5171 31.5855 48.5909 32.1003C48.6627 32.601 48.7863 32.9223 49.0087 33.3474C49.5322 34.3398 50.4808 35.1099 51.5963 35.4399L51.5963 35.4399L51.5975 35.4403C52.3168 35.6569 53.4073 35.626 54.1224 35.3774C55.5846 34.8581 56.6089 33.6988 56.9226 32.1927L56.9228 32.1916C56.9994 31.8316 57.0418 31.1196 57.0418 29.787C57.0418 28.9582 57.0398 28.502 57.0252 28.2553C56.8552 28.3035 56.6494 28.3509 56.4514 28.39C56.1618 28.4471 55.8542 28.4932 55.6739 28.4932C55.3713 28.4932 54.9839 28.4301 54.6087 28.3352C54.2321 28.2399 53.8488 28.1079 53.5542 27.9606L53.5542 27.9606L53.5518 27.9594C52.8874 27.6183 52.1386 26.9679 51.7634 26.387L51.7631 26.3865C51.7238 26.3253 51.6855 26.2685 51.6506 26.2187C51.6227 26.2549 51.5935 26.2945 51.5647 26.336ZM57.251 28.1818L57.251 28.1819C57.2533 28.181 57.2534 28.1807 57.251 28.1818ZM51.2862 29.9328C51.5058 30.1477 51.6065 30.4273 51.539 30.7025C51.4723 30.9742 51.2562 31.1818 50.9667 31.2906C50.5253 31.4587 50.1254 31.256 49.9368 30.9416C49.7474 30.6259 49.7611 30.1778 50.1333 29.882C50.3108 29.74 50.5115 29.6541 50.7266 29.6638C50.9424 29.6735 51.1306 29.7776 51.2862 29.9328ZM55.4058 29.8814C55.6554 30.0788 55.7588 30.3706 55.7059 30.6509C55.6535 30.9285 55.4537 31.1679 55.1545 31.2882C55.0491 31.3321 54.9362 31.3713 54.8074 31.3657C54.6792 31.3601 54.5664 31.3116 54.4558 31.2541C54.2017 31.1241 54.0189 30.9158 53.9789 30.6524C53.939 30.3894 54.051 30.1355 54.2525 29.9339C54.4083 29.778 54.5969 29.6735 54.8132 29.6638C55.0281 29.6541 55.2285 29.7398 55.4058 29.8814Z" fill="#EFF4EB" stroke="black" stroke-width="0.5"/>
<path d="M26.7509 35.9953L26.751 35.9953C27.0397 35.9149 27.5551 35.8841 28.0975 35.9067C28.6385 35.9292 29.1583 36.0027 29.455 36.1064C31.2876 36.7569 32.5161 38.6674 32.3671 40.6317C32.2383 42.2078 31.5356 43.9874 30.5189 45.2949L30.7163 45.4484M26.7509 35.9953L29.9696 46.4775L30.0107 46.2309C30.0114 46.231 30.0121 46.2311 30.0127 46.2313C30.0186 46.2322 30.0242 46.2331 30.0295 46.234C30.0324 46.2191 30.0355 46.2025 30.0389 46.1838L30.0389 46.1838L30.0397 46.1795C30.0643 46.0566 30.1366 45.8997 30.2163 45.7551C30.2999 45.6034 30.4067 45.4386 30.5193 45.2945L30.7163 45.4484M26.7509 35.9953C26.0514 36.1897 25.4082 36.5795 24.8209 37.1749L24.8197 37.1761M26.7509 35.9953L24.8197 37.1761M30.7163 45.4484C30.5089 45.7139 30.3181 46.0625 30.2849 46.2285L29.5381 35.8706C31.4796 36.5595 32.774 38.5763 32.6163 40.6512C32.4836 42.2779 31.7617 44.1038 30.7163 45.4484ZM24.8197 37.1761C24.3149 37.6811 23.9839 38.1602 23.785 38.6928C23.5857 39.2264 23.5122 39.8314 23.5485 40.5979L23.5485 40.5984M24.8197 37.1761L23.5485 40.5984M23.5485 40.5984C23.6206 42.1935 24.2715 43.8876 25.3464 45.27L25.3467 45.2704M23.5485 40.5984L25.3467 45.2704M25.3467 45.2704C25.4529 45.4077 25.5568 45.5624 25.6385 45.7045C25.7126 45.8334 25.7866 45.9826 25.8091 46.1048C25.8186 46.1469 25.8292 46.1864 25.8398 46.2203L25.3467 45.2704Z" fill="#FFB685" stroke="black" stroke-width="0.5"/>
<path d="M51.0034 37.5047H51.0035L51.0035 37.5064C51.0161 37.8836 51.0306 38.077 51.0636 38.2195C51.0937 38.3496 51.1409 38.4443 51.2488 38.6202L51.2489 38.6202L51.2508 38.6235C51.364 38.8145 51.611 39.0779 51.7777 39.2024C51.9199 39.2982 52.0052 39.3427 52.1064 39.3711C52.2162 39.402 52.3586 39.4181 52.6239 39.4305L52.6239 39.4305L52.6275 39.4307C52.8974 39.4473 53.0384 39.447 53.1561 39.4259C53.2694 39.4055 53.3755 39.3634 53.5707 39.2658L53.5707 39.2658L53.5746 39.2639C53.9197 39.0987 54.1542 38.8748 54.3083 38.5666C54.4659 38.2513 54.5485 37.8297 54.5526 37.2566C54.5526 37.1605 54.5523 37.0838 54.5511 37.0222C53.2957 37.3648 52.246 37.365 50.9842 37.023L51.0034 37.5047Z" fill="#FFB685" stroke="black" stroke-width="0.5"/>
<path d="M45.3382 47.5804H52.7697H60.1945V43.9047C60.1945 42.2649 60.1882 41.2666 60.1687 40.6278C60.149 39.985 60.1159 39.7264 60.0701 39.5534L60.0701 39.5534L60.0693 39.5504C59.8307 38.6034 59.2419 37.8897 58.3592 37.4478C58.0597 37.3022 57.9147 37.2386 57.7426 37.2012C57.5634 37.1623 57.3472 37.15 56.9019 37.1332L56.2204 37.1149L56.1973 37.6811C56.1973 37.6812 56.1973 37.6814 56.1973 37.6815C56.1718 38.3621 56.119 38.6482 55.9173 39.0795C55.4639 40.0747 54.7268 40.7122 53.6807 41.0315L45.3382 47.5804ZM45.3382 47.5804L45.3616 43.6572L45.3861 39.5458L45.6192 39.0493C45.6194 39.0491 45.6195 39.0488 45.6196 39.0486C46.0404 38.1683 46.6786 37.5866 47.5482 37.286C47.8633 37.1811 48.1918 37.1331 48.7061 37.125H49.234M45.3382 47.5804L49.234 37.125M49.234 37.125L49.3018 37.7725C49.3018 37.7725 49.3018 37.7725 49.3018 37.7725C49.3791 38.5112 49.5594 39.1204 49.8778 39.6214C50.1978 40.1249 50.6463 40.5018 51.2315 40.7922L51.2317 40.7924C52.0881 41.2163 52.8258 41.2925 53.6807 41.0315L49.234 37.125Z" fill="#A18EE8" stroke="black" stroke-width="0.5"/>
<path d="M27.006 47.7372L27.006 47.7372L27.0051 47.7373C26.553 47.8087 26.0421 47.9587 25.6462 48.1167C25.63 48.1232 25.6141 48.1296 25.5985 48.136C25.6284 48.1369 25.6592 48.1378 25.6909 48.1387C26.225 48.1531 27.0003 48.1614 27.9617 48.1614C28.815 48.1614 29.5908 48.1531 30.1524 48.1397C30.1893 48.1388 30.2253 48.1379 30.2602 48.137C29.9993 48.0215 29.7182 47.917 29.5134 47.8663C29.2107 47.7967 28.7183 47.7418 28.2247 47.7162C27.7273 47.6904 27.2602 47.6961 27.006 47.7372Z" fill="#EFF4EB" stroke="black" stroke-width="0.5"/>
<path d="M23.1271 49.932L23.1252 49.9325C22.2088 50.154 21.421 50.8135 20.9861 51.738L20.9855 51.7393L20.744 52.245L20.7195 56.2311L20.6961 60.0298H27.9202H35.1443L35.1209 56.1896L35.0964 52.162L34.8549 51.6563L34.8546 51.6555C34.4463 50.7925 33.7177 50.1867 32.7944 49.9482L32.7944 49.9482L32.7895 49.9468C32.6159 49.8982 32.3525 49.8648 31.6394 49.8471C30.932 49.8296 29.8052 49.8275 27.9208 49.8316H27.9202C26.3317 49.8316 25.1952 49.8399 24.4193 49.8575C24.0312 49.8663 23.7354 49.8773 23.5194 49.8907C23.2963 49.9044 23.1763 49.9197 23.1271 49.932Z" fill="#FFB685" stroke="black" stroke-width="0.5"/>
</svg>
